<?xml version="1.0" standalone="no"?><svg xmlns="http://www.w3.org/2000/svg" viewBox="0 0 1440 320"><path fill="#eac102" fill-opacity="1" d="M0,192L34.3,181.3C68.6,171,137,149,206,165.3C274.3,181,343,235,411,261.3C480,288,549,288,617,272C685.7,256,754,224,823,192C891.4,160,960,128,1029,144C1097.1,160,1166,224,1234,213.3C1302.9,203,1371,117,1406,74.7L1440,32L1440,320L1405.7,320C1371.4,320,1303,320,1234,320C1165.7,320,1097,320,1029,320C960,320,891,320,823,320C754.3,320,686,320,617,320C548.6,320,480,320,411,320C342.9,320,274,320,206,320C137.1,320,69,320,34,320L0,320Z"></path></svg>